# xmcd
#
# Track frame offsets:
#	183
#	102408
#	131320
#	157683
#	174558
#
# Disc length: 2571 seconds
#
# Revision: 1
# Processed by: cddbd v1.5.2PL0 Copyright (c) Steve Scherf et al.
# Submitted via: audiograbber 1.83.01
#
DISCID=310a0905
DTITLE=Kraftwerk - Autobahn
DYEAR=1974
DGENRE=Electronic
TTITLE0=Autobahn
TTITLE1=Kometenmelodie 1
TTITLE2=Kometenmelodie 2
TTITLE3=Mitternacht
TTITLE4=Morgenspaziergang
EXTD=
EXTT0=
EXTT1=
EXTT2=
EXTT3=
EXTT4=
PLAYORDER=
